#!OML:ASF X:\für Bonn\!DataBase\2005_08_12_Daniel\c3d\Daniel.ASF
:FULLY-SPECIFIED
:DEGREES
94
root 6.31904 12.8141 -3.72532 -1091.65 0.398876 -9.71406
lowerback 76.746 -1.68074 -1.88379
upperback 11.2655 -4.17355 -3.95685
thorax -8.27872 -1.56129 -2.06666
lowerneck 5.19687 11.5425 0.0726477
upperneck 4.87071 15.2966 -7.02842
head 1.27884 7.50742 -2.23051
rclavicle -3.81667e-014 -1.90833e-014
rhumerus -24.0881 11.888 -84.7591
rradius 43.6034
rwrist 5.77579
rhand -17.3283 -342.026
rfingers 7.12502
rthumb 8.91854 -371.817
lclavicle -3.81667e-014 -1.90833e-014
lhumerus -708.039 4.09218 -659.211
lradius 33.3743
lwrist -21.7572
lhand -21.3765 350.551
lfingers 7.12502
lthumb 5.01085 380.472
rfemur 304.887 -20.2018 398.926
rtibia 88.4903
rfoot -18.661 12.4439
rtoes 12.7756
lfemur -44.1071 -2.40844 -6.09654
ltibia 112.434
lfoot 1.21815 -34.4995
ltoes 8.49913
95
root 6.38746 12.6961 -3.69353 -1091.68 -0.326446 -10.2595
lowerback 77.1435 -1.51607 -1.96113
upperback 11.2842 -4.13084 -4.01008
thorax -8.21237 -1.5578 -2.12732
lowerneck 4.6805 11.638 -0.0747324
upperneck 4.85956 15.4314 -6.86054
head 1.33937 7.56485 -2.12032
rclavicle -2.8625e-014 -1.43125e-014
rhumerus -24.0137 11.9086 -84.5937
rradius 43.395
rwrist 5.92923
rhand -17.3541 -342.065
rfingers 7.12502
rthumb 8.89364 -371.857
lclavicle -2.8625e-014 -1.43125e-014
lhumerus -707.368 4.91655 -659.817
lradius 32.5752
lwrist -23.0081
lhand -22.0335 350.378
lfingers 7.12502
lthumb 4.37642 380.313
rfemur 304.282 -20.3831 399.501
rtibia 89.6145
rfoot -18.7212 12.9928
rtoes 13.1693
lfemur -44.6703 -2.76065 -5.62426
ltibia 113.416
lfoot 2.83069 -35.0315
ltoes 9.20883
96
root 6.45624 12.5768 -3.6626 -1091.73 -1.04454 -10.8013
lowerback 77.5343 -1.35532 -2.02695
upperback 11.294 -4.0864 -4.06627
thorax -8.15689 -1.55306 -2.19668
lowerneck 4.14886 11.7101 -0.213547
upperneck 4.89176 15.5394 -6.67606
head 1.414 7.60799 -2.00458
rclavicle 0 2.70347e-014
rhumerus -24.007 11.939 -84.4155
rradius 43.2201
rwrist 6.09952
rhand -17.3911 -342.095
rfingers 7.12502
rthumb 8.85798 -371.889
lclavicle 0 2.70347e-014
lhumerus -706.768 5.83883 -660.354
lradius 31.8386
lwrist -24.3822
lhand -22.7899 350.209
lfingers 7.12502
lthumb 3.64602 380.158
rfemur 303.67 -20.5896 400.061
rtibia 90.7505
rfoot -18.7619 13.5242
rtoes 13.5035
lfemur -45.26 -3.00304 -5.13054
ltibia 114.485
lfoot 4.26679 -35.5553
ltoes 9.79896
97
root 6.52595 12.4539 -3.63244 -1091.74 -1.75573 -11.3538
lowerback 77.8805 -1.19733 -2.10409
upperback 11.314 -4.05369 -4.11954
thorax -8.09305 -1.55517 -2.25218
lowerneck 3.62703 11.7732 -0.340056
upperneck 4.89718 15.6368 -6.52529
head 1.48178 7.64745 -1.90313
rclavicle -2.22639e-014 -1.27222e-014
rhumerus -23.9635 11.9273 -84.228
rradius 43.0211
rwrist 6.38011
rhand -17.4088 -342.134
rfingers 7.12502
rthumb 8.84091 -371.929
lclavicle -2.22639e-014 -1.27222e-014
lhumerus -706.23 6.81067 -660.92
lradius 31.1453
lwrist -25.7047
lhand -23.7412 350.034
lfingers 7.12502
lthumb 2.72733 379.997
rfemur 303.02 -20.8031 400.635
rtibia 91.8958
rfoot -18.7749 14.0635
rtoes 13.8698
lfemur -45.8997 -3.19004 -4.63833
ltibia 115.616
lfoot 5.43896 -36.0858
ltoes 10.5265
98
root 6.59764 12.3293 -3.60277 -1091.78 -2.47433 -11.889
lowerback 78.2207 -1.03281 -2.18737
upperback 11.3389 -4.02146 -4.17506
thorax -8.02306 -1.55787 -2.30799
lowerneck 3.10982 11.8199 -0.421614
upperneck 4.91412 15.7165 -6.4068
head 1.55847 7.6787 -1.81874
rclavicle -2.22639e-014 -3.10104e-014
rhumerus -23.9706 11.8846 -84.0156
rradius 42.874
rwrist 6.70498
rhand -17.3981 -342.121
rfingers 7.12502
rthumb 8.85121 -371.915
lclavicle -2.22639e-014 -3.10104e-014
lhumerus -705.664 7.89944 -661.406
lradius 30.3923
lwrist -27.1212
lhand -24.9082 349.775
lfingers 7.12502
lthumb 1.60025 379.749
rfemur 302.386 -21.0108 401.176
rtibia 93.0448
rfoot -18.8057 14.5757
rtoes 14.1606
lfemur -46.4683 -3.32048 -4.17854
ltibia 116.76
lfoot 6.42284 -36.6605
ltoes 11.3237
99
root 6.66944 12.2002 -3.57372 -1091.81 -3.18008 -12.428
lowerback 78.5836 -0.880266 -2.26102
upperback 11.3311 -3.99863 -4.23355
thorax -7.98947 -1.56327 -2.3674
lowerneck 2.64999 11.8522 -0.561713
upperneck 4.91199 15.7707 -6.22603
head 1.60761 7.69873 -1.71166
rclavicle 3.18055e-015 -2.8625e-014
rhumerus -23.9869 11.7147 -83.8035
rradius 42.6633
rwrist 7.16897
rhand -17.3693 -342.055
rfingers 7.12502
rthumb 8.87902 -371.848
lclavicle 3.18055e-015 -2.8625e-014
lhumerus -705.136 8.98876 -661.909
lradius 29.6401
lwrist -28.4024
lhand -26.1631 349.54
lfingers 7.12502
lthumb 0.388194 379.519
rfemur 301.722 -21.2472 401.715
rtibia 94.2153
rfoot -18.8071 15.0721
rtoes 14.4162
lfemur -46.9664 -3.38806 -3.73614
ltibia 117.893
lfoot 7.47049 -37.1669
ltoes 12.0365
